<?xml version="1.0" standalone="no"?>
<!DOCTYPE svg PUBLIC "-//W3C//DTD SVG 20010904//EN"
 "http://www.w3.org/TR/2001/REC-SVG-20010904/DTD/svg10.dtd">
<svg version="1.0" xmlns="http://www.w3.org/2000/svg"
 width="700.000000pt" height="700.000000pt" viewBox="0 0 700.000000 700.000000"
 preserveAspectRatio="xMidYMid meet">
<metadata>
Created by potrace 1.11, written by Peter Selinger 2001-2013
</metadata>
<g transform="translate(0.000000,700.000000) scale(0.100000,-0.100000)"
fill="#000000" stroke="none">
<path d="M3358 6912 c-24 -3 -28 -8 -29 -35 -1 -18 -2 -45 -4 -62 -2 -16 -6
-160 -10 -320 -5 -257 -10 -343 -19 -352 -1 -1 -29 -5 -62 -7 l-59 -5 -104
100 c-58 55 -126 114 -153 131 -26 17 -48 32 -48 33 0 1 14 17 31 36 43 47 62
95 61 156 -1 93 -69 180 -157 204 -54 15 -171 5 -275 -24 -101 -29 -297 -104
-306 -118 -5 -8 159 -531 211 -672 l14 -37 -39 -20 c-22 -11 -44 -20 -49 -20
-16 0 -256 159 -460 305 -205 146 -220 155 -250 155 -25 0 -201 -107 -201
-122 0 -12 80 -331 116 -466 14 -51 27 -100 29 -110 1 -9 8 -37 15 -62 7 -25
14 -53 16 -63 2 -10 5 -26 8 -35 21 -72 13 -122 -19 -122 -12 0 -234 167 -491
372 -62 48 -117 88 -122 88 -17 0 -133 -143 -130 -159 2 -8 47 -51 102 -95 54
-45 98 -85 97 -91 -1 -12 -134 -194 -141 -194 -3 -1 -52 36 -109 80 -81 63
-108 79 -122 72 -17 -8 -112 -120 -130 -155 -8 -14 16 -37 138 -135 82 -65
150 -120 153 -123 14 -14 164 -132 223 -175 37 -27 70 -59 73 -70 6 -24 -54
-152 -65 -139 -4 5 -14 31 -21 57 -17 63 -61 128 -110 162 -56 39 -142 45
-203 16 -52 -25 -140 -112 -198 -196 -23 -33 -50 -68 -60 -77 -24 -24 -56 -23
-69 3 -25 46 19 116 94 149 41 17 42 20 75 119 18 56 30 105 27 108 -3 4 -28
6 -56 6 -119 -2 -240 -110 -287 -258 -8 -22 -16 -76 -20 -120 -5 -73 -3 -85
20 -131 57 -112 136 -149 244 -113 44 14 150 113 207 193 50 71 65 85 95 91
31 6 55 -37 54 -96 0 -43 -5 -53 -34 -79 -20 -17 -45 -30 -62 -30 -37 0 -57
-26 -84 -112 -28 -90 -28 -95 0 -101 82 -17 146 -3 220 50 27 19 51 33 53 31
2 -2 -5 -33 -16 -69 -32 -104 -73 -290 -85 -384 -4 -33 -9 -71 -11 -85 -2 -14
-6 -70 -10 -125 -4 -55 -8 -101 -9 -103 -1 -1 -166 -4 -366 -7 -378 -5 -385
-5 -408 -19 -17 -11 -10 -213 14 -437 4 -35 8 -66 10 -69 2 -3 7 -33 10 -65
10 -85 76 -347 125 -495 136 -410 311 -745 536 -1025 249 -311 425 -490 624
-636 353 -260 616 -406 961 -534 105 -39 307 -100 369 -111 14 -3 57 -11 95
-19 78 -15 121 -22 180 -30 22 -3 54 -7 70 -10 108 -16 191 -20 435 -20 249 1
379 6 450 19 14 3 41 7 60 10 232 35 678 169 920 278 221 99 591 321 700 420
14 13 55 49 92 81 75 65 267 253 343 337 194 212 299 364 442 636 181 347 262
562 333 887 27 124 32 150 46 244 3 21 7 45 9 53 2 8 7 47 11 85 3 39 8 78 10
88 2 11 6 85 10 165 l7 147 -284 2 c-253 2 -479 9 -485 16 -1 1 -5 38 -9 82
-3 44 -8 89 -10 100 -2 11 -7 45 -10 75 -7 73 -13 117 -21 163 -15 91 -17 84
90 220 55 70 110 146 122 169 18 34 22 38 35 26 102 -100 272 -91 339 17 59
96 17 291 -121 566 -26 54 -53 100 -59 104 -5 3 -75 -26 -155 -64 -79 -39
-146 -71 -149 -71 -2 0 -42 -17 -88 -39 -45 -21 -117 -53 -158 -71 -41 -18
-90 -38 -107 -46 l-33 -14 -30 52 c-16 29 -30 58 -30 65 0 7 133 105 295 218
162 114 299 215 305 225 8 14 0 31 -36 82 -26 34 -58 75 -72 90 l-25 28 -36
-22 c-20 -13 -106 -73 -191 -135 -300 -217 -391 -277 -401 -262 -29 43 -28 46
30 200 59 154 129 330 195 489 51 122 49 131 -31 208 -106 101 -102 99 -176
64 -72 -33 -529 -276 -606 -322 -29 -16 -56 -30 -60 -30 -5 0 -24 10 -42 23
-48 32 -236 131 -306 161 -65 27 -67 23 39 61 104 36 157 98 202 237 65 194
51 290 -56 397 -27 27 -77 63 -113 80 -67 33 -264 106 -312 116 -87 18 -91 18
-97 -1 -25 -86 -92 -315 -111 -384 -13 -47 -35 -125 -50 -175 -15 -49 -30
-101 -34 -115 -4 -14 -15 -25 -24 -24 -91 4 -102 15 -99 94 1 34 5 66 8 71 3
5 2 9 -3 10 -4 0 -17 2 -28 4 -21 4 -110 11 -265 21 -52 3 -98 9 -102 12 -7 8
-11 47 -9 108 l1 40 43 -3 c117 -8 307 -9 319 -2 7 4 14 27 15 49 1 23 4 47 6
54 11 28 -11 35 -134 41 -238 11 -244 13 -233 84 l7 43 141 -7 c78 -4 162 -8
188 -10 27 -2 51 1 54 6 6 11 9 29 18 116 l6 51 -40 7 c-135 23 -491 39 -592
27z m-654 -318 c33 -32 38 -54 22 -80 -18 -26 -74 -58 -122 -68 -22 -5 -34 -2
-47 11 -17 19 -45 109 -36 117 9 9 112 35 141 35 15 1 34 -6 42 -15z m1864
-78 c85 -43 98 -72 76 -169 -22 -92 -60 -156 -114 -189 -42 -26 -170 -7 -170
25 0 19 70 214 105 295 15 34 34 62 42 62 7 0 35 -11 61 -24z m-1888 -233 c41
-28 191 -186 187 -198 -4 -11 -176 -58 -192 -51 -5 2 -23 48 -38 102 -16 55
-33 109 -38 122 -5 13 -7 28 -4 33 10 15 59 10 85 -8z m-906 -242 c33 -27 69
-58 79 -69 18 -20 17 -21 -38 -63 -30 -23 -57 -40 -58 -38 -4 4 -26 81 -32
108 -2 9 -9 32 -14 51 -12 39 -14 60 -5 60 3 0 34 -22 68 -49z m2181 -25 c43
-8 98 -19 114 -22 238 -47 527 -164 754 -306 220 -138 394 -287 631 -542 33
-35 44 -56 31 -56 -3 0 -101 27 -217 61 -117 33 -235 67 -263 74 -61 17 -984
283 -1110 320 -49 15 -96 32 -103 38 -13 10 -12 88 3 217 10 87 18 177 19 203
1 29 1 29 56 24 30 -3 69 -8 85 -11z m-1893 -203 c48 -40 50 -46 24 -68 -22
-19 -195 -141 -222 -157 -12 -8 -36 33 -48 84 -6 25 1 32 96 98 55 38 105 70
109 70 4 0 22 -12 41 -27z m3526 -86 c-24 -59 -48 -107 -53 -107 -14 0 -95 82
-95 96 0 6 8 18 18 27 20 18 165 97 169 93 2 -2 -16 -51 -39 -109z m-236 -178
c51 -45 97 -85 102 -90 9 -8 -39 -99 -53 -99 -4 0 -58 49 -120 109 l-112 109
38 26 c21 14 41 26 45 26 4 0 49 -37 100 -81z m-2051 -183 c129 -52 246 -100
261 -106 32 -15 41 -37 34 -82 -3 -18 -8 -64 -11 -103 -3 -38 -8 -86 -10 -105
-2 -19 -7 -66 -10 -105 -14 -163 -26 -245 -35 -245 -4 0 -16 12 -25 28 -32 49
-135 140 -188 166 -124 60 -282 64 -419 9 -134 -53 -273 -215 -296 -344 -8
-48 -7 -151 2 -239 14 -122 129 -270 261 -338 66 -33 123 -44 240 -44 139 0
203 23 320 117 59 47 68 51 62 29 -3 -11 -11 -71 -17 -134 -12 -121 -19 -193
-25 -238 -2 -15 -4 -37 -4 -49 -1 -20 -5 -22 -48 -18 -27 2 -82 7 -123 10 -41
3 -91 8 -110 10 -19 2 -64 7 -100 10 -36 3 -81 8 -100 10 -19 3 -69 7 -110 10
-41 3 -91 8 -110 10 -19 2 -64 7 -100 10 -36 3 -81 8 -100 10 -19 2 -64 7
-100 10 -36 3 -81 7 -100 10 -19 2 -66 7 -105 10 -38 3 -81 8 -95 10 -14 2
-56 6 -95 10 -38 4 -87 8 -108 10 -20 2 -62 7 -93 10 -31 3 -60 7 -64 10 -9 5
-8 1331 1 1340 4 3 69 7 145 8 l139 2 2 -69 c1 -38 5 -71 7 -74 8 -8 149 -10
170 -2 15 5 20 18 22 66 6 100 0 94 161 171 82 39 175 83 208 98 33 14 69 30
80 36 11 5 94 43 185 84 91 41 166 74 166 74 1 1 107 -41 235 -93z m607 10
c64 -19 129 -39 144 -44 31 -13 78 -101 73 -136 -28 -158 -47 -262 -50 -266
-2 -3 -6 -23 -9 -45 -4 -22 -15 -51 -26 -65 -12 -14 -27 -40 -35 -57 -9 -18
-21 -34 -28 -34 -6 -1 -31 -3 -54 -4 -55 -3 -98 -21 -118 -51 -19 -29 -29
-135 -29 -291 1 -127 11 -161 57 -189 31 -18 60 -19 837 -20 443 0 840 2 882
5 117 9 113 0 115 254 1 117 -2 222 -7 235 -18 43 -70 55 -250 57 -91 2 -174
3 -186 4 -31 2 -83 80 -91 138 -11 73 -8 93 12 93 8 0 17 11 21 25 3 14 8 25
10 25 9 0 288 -82 384 -112 l104 -33 39 -65 c137 -231 272 -587 302 -800 3
-25 8 -52 10 -60 24 -82 54 -571 38 -616 -2 -7 -22 -10 -46 -9 -68 4 -220 16
-247 20 -14 2 -61 7 -105 11 -44 4 -91 8 -105 9 -14 2 -61 6 -105 10 -44 3
-91 8 -105 10 -14 2 -61 7 -105 10 -44 3 -96 8 -115 10 -19 2 -64 7 -100 10
-36 4 -81 8 -100 10 -19 2 -66 7 -105 10 -38 3 -86 8 -105 10 -19 3 -66 7
-105 10 -38 3 -86 8 -105 10 -19 2 -64 7 -100 10 -36 3 -81 8 -100 10 -19 2
-64 7 -100 10 -36 3 -81 8 -100 10 -19 2 -62 6 -95 9 -163 16 -382 38 -400 41
-11 2 -24 4 -28 4 -4 1 -5 24 -3 51 3 28 8 71 11 98 2 26 7 72 11 102 7 66 9
91 18 195 4 44 9 91 11 105 2 14 6 57 10 95 3 39 8 84 10 100 2 17 6 59 10 95
3 36 10 106 15 155 5 50 11 115 14 145 3 30 12 120 20 200 9 80 18 177 22 215
3 39 8 77 9 85 2 8 6 49 10 90 11 112 16 130 36 130 6 0 63 -15 127 -34z
m-2606 -48 c91 -72 148 -122 148 -130 0 -13 -134 -188 -144 -188 -15 0 -108
66 -166 118 -50 45 -54 51 -43 73 14 30 131 169 142 169 5 0 33 -19 63 -42z
m3367 -172 c303 -87 356 -104 353 -119 -2 -10 8 -41 22 -70 34 -74 43 -155 19
-184 -10 -12 -22 -28 -28 -37 -7 -11 -38 -17 -115 -22 -124 -9 -592 -11 -682
-4 l-63 5 -26 50 c-15 28 -25 59 -23 70 4 27 22 140 29 190 17 114 36 170 68
201 25 25 38 30 61 27 15 -3 188 -51 385 -107z m-1448 -421 c105 -38 192 -117
240 -220 27 -56 30 -73 30 -166 1 -96 -1 -109 -30 -169 -76 -162 -206 -242
-380 -234 -184 9 -326 116 -383 289 -16 49 -18 159 -4 213 51 191 223 317 418
306 36 -2 85 -11 109 -19z m3279 -15 c11 -22 23 -60 26 -84 6 -39 3 -48 -20
-71 -30 -30 -58 -27 -89 9 -20 22 -67 110 -67 124 0 8 69 42 110 56 8 2 16 5
17 5 2 1 12 -17 23 -39z m-283 -102 c3 -19 -10 -43 -48 -93 -66 -87 -146 -171
-154 -164 -14 15 -72 177 -66 186 3 6 17 16 31 23 42 23 204 79 219 77 8 -1
16 -14 18 -29z m-631 -13 c12 -16 15 -51 13 -164 -2 -138 -3 -146 -26 -169
l-24 -24 -797 6 c-438 3 -813 7 -832 9 -54 4 -60 27 -56 196 3 120 7 147 20
157 13 9 213 12 852 10 823 -1 836 -1 850 -21z m-4426 -949 c19 -3 67 -7 105
-10 39 -4 81 -8 95 -11 14 -2 64 -6 111 -10 47 -3 96 -8 110 -10 13 -2 56 -7
94 -10 39 -3 88 -8 110 -10 22 -2 69 -7 105 -10 36 -4 78 -8 95 -10 16 -2 64
-7 105 -11 41 -3 82 -8 91 -9 8 -2 53 -6 100 -10 46 -4 93 -9 103 -11 11 -2
53 -6 94 -9 41 -3 89 -7 106 -10 17 -2 58 -7 91 -10 181 -16 271 -25 310 -30
17 -2 62 -6 101 -10 39 -3 81 -8 94 -10 12 -2 52 -7 89 -10 36 -3 75 -7 86 -9
11 -3 31 -5 43 -5 l24 -1 -7 -116 c-4 -64 -8 -124 -10 -133 -1 -9 -6 -52 -10
-96 -3 -44 -8 -91 -10 -105 -3 -22 -9 -88 -21 -230 -3 -40 -8 -91 -19 -200 -2
-19 -6 -69 -10 -110 -3 -41 -8 -91 -10 -110 -5 -38 -12 -100 -20 -195 -3 -33
-8 -69 -10 -80 -2 -11 -4 -23 -4 -27 -1 -4 -22 -1 -48 7 -47 14 -160 39 -225
50 -18 3 -40 8 -48 10 -8 2 -35 7 -60 10 -25 3 -61 10 -80 15 -33 8 -76 15
-152 25 -18 2 -50 7 -71 10 -20 4 -49 9 -65 11 -15 2 -102 6 -193 9 -156 5
-168 4 -190 -14 l-24 -20 30 -2 c66 -2 218 -17 254 -24 10 -2 36 -6 57 -9 22
-4 46 -8 54 -11 8 -2 35 -6 60 -9 51 -7 48 -6 190 -36 160 -33 294 -67 399
-103 l95 -32 1 -42 c2 -51 -8 -71 -27 -56 -27 21 -254 102 -358 128 -8 2 -78
20 -155 40 -246 63 -406 91 -579 100 -61 3 -115 -8 -86 -18 13 -5 94 -20 175
-33 17 -3 53 -9 80 -15 88 -17 98 -19 140 -25 185 -26 446 -110 630 -201 181
-90 193 -117 97 -211 -74 -73 -93 -88 -172 -138 -63 -40 -85 -52 -215 -124
-101 -56 -247 -127 -297 -144 l-47 -16 -116 55 c-129 60 -282 148 -365 209
-74 54 -151 118 -146 123 5 5 167 35 321 59 109 17 270 53 340 76 72 24 191
82 223 108 27 22 23 34 -17 54 -66 34 -419 142 -501 152 -19 3 -46 9 -60 13
-38 11 -143 8 -147 -5 -2 -6 9 -16 24 -22 26 -10 42 -13 153 -27 25 -4 74 -13
110 -21 212 -50 310 -83 310 -108 0 -16 -72 -48 -158 -70 -69 -17 -79 -19
-197 -36 -44 -6 -91 -13 -105 -15 -14 -2 -61 -9 -105 -15 -44 -6 -93 -13 -110
-15 -101 -15 -177 -17 -205 -5 -27 11 -211 215 -255 283 -22 35 -15 44 19 22
14 -10 26 -14 26 -9 0 5 7 -2 16 -14 24 -34 41 -27 65 28 42 97 55 88 64 -45
5 -72 16 -105 34 -105 22 0 42 30 47 70 10 88 25 145 42 165 25 30 72 57 87
51 15 -5 11 -29 -27 -161 -29 -100 -30 -129 -2 -133 27 -4 48 22 69 88 23 70
62 150 75 150 5 0 28 25 50 55 22 30 47 55 55 55 8 0 26 18 41 39 14 22 36 41
47 43 17 2 27 17 42 61 16 46 24 57 42 58 13 1 26 2 31 3 4 1 29 5 55 10 115
18 232 98 323 219 55 74 75 139 75 246 l0 84 27 -24 c123 -106 279 -288 384
-449 31 -47 63 -92 72 -99 14 -12 16 -10 16 12 0 59 -51 203 -150 422 -10 22
-21 67 -25 100 -22 200 -166 368 -314 367 -102 -1 -253 -52 -283 -96 -10 -15
1 -26 19 -19 13 5 15 1 10 -18 -3 -13 3 -58 13 -99 21 -88 20 -202 -4 -248
-14 -28 -64 -72 -81 -72 -4 0 -3 26 2 58 4 31 8 109 7 172 -1 93 -5 126 -23
173 -30 78 -125 171 -225 222 -68 34 -78 37 -131 30 -89 -10 -240 -52 -303
-84 -82 -42 -193 -140 -260 -230 -15 -20 -29 -38 -33 -41 -35 -31 -167 -302
-198 -407 -21 -69 -23 -73 -59 -83 -20 -5 -43 -10 -49 -10 -46 0 -153 368
-189 650 -3 25 -9 73 -14 107 -9 67 -11 382 -2 397 4 8 120 3 222 -8z m4856
-618 c-4 -18 -9 -42 -11 -53 -60 -289 -176 -585 -336 -854 -59 -100 -73 -108
-189 -116 -52 -3 -104 -8 -115 -10 -11 -3 -38 -7 -60 -10 -128 -18 -363 -91
-504 -156 -100 -47 -203 -114 -251 -164 l-35 -36 0 -244 c0 -134 -3 -246 -5
-248 -5 -4 -251 -94 -280 -103 -115 -32 -195 -53 -222 -57 -18 -3 -55 -10 -83
-15 -62 -13 -159 -25 -205 -26 l-35 -1 3 525 c3 676 10 1241 15 1247 3 2 33 6
67 8 54 4 66 9 101 39 73 67 184 93 291 71 39 -8 128 -55 128 -66 0 -15 59
-39 100 -41 22 -1 43 -4 45 -7 2 -4 4 -33 6 -66 1 -33 4 -65 6 -72 7 -18 573
-21 687 -3 97 15 160 66 280 228 139 187 273 254 525 261 l84 2 -7 -33z
m-3031 -72 c0 -38 -28 -57 -51 -34 -16 16 -16 19 0 43 23 34 51 29 51 -9z
m-2118 -112 c79 -64 136 -218 113 -304 -18 -66 -72 -140 -104 -140 -7 0 -24
33 -38 73 -23 64 -24 76 -12 99 31 60 25 126 -15 147 -47 26 -55 3 -67 -209
-7 -133 -27 -180 -88 -209 -51 -25 -153 -28 -195 -6 -45 23 -108 102 -131 162
-33 88 -28 183 13 253 26 45 77 100 93 100 13 0 16 -7 45 -88 l19 -54 -25 -32
c-41 -54 -33 -141 16 -170 60 -35 81 -4 94 139 13 142 16 157 34 193 31 60 77
83 159 78 40 -2 60 -9 89 -32z m5516 -55 c339 -114 330 -109 321 -157 -18 -96
-43 -122 -139 -146 -33 -8 -118 -29 -190 -46 -71 -18 -133 -35 -137 -39 -8 -7
59 -33 240 -94 62 -21 92 -36 92 -47 0 -8 -14 -44 -30 -79 -28 -59 -32 -63
-58 -56 -60 14 -571 218 -572 228 0 4 13 36 28 70 l29 63 79 19 c43 10 84 20
89 21 25 5 240 66 243 69 2 2 -45 22 -105 45 -59 22 -132 51 -162 62 l-53 21
6 39 c6 39 35 118 43 118 2 0 126 -41 276 -91z m-5325 -411 c10 -13 72 -126
72 -132 0 -2 -40 -27 -90 -55 -49 -29 -90 -56 -90 -59 0 -10 90 -163 107 -184
13 -15 20 -13 86 26 127 74 120 73 161 11 54 -81 55 -78 -21 -126 -139 -88
-475 -289 -483 -289 -8 0 -38 46 -71 107 l-17 33 87 54 c119 75 131 85 131
103 0 19 -101 193 -112 193 -4 0 -47 -24 -95 -53 -142 -84 -143 -85 -156 -62
-24 40 -57 130 -53 141 3 7 47 36 98 65 51 28 109 61 128 72 133 77 296 167
301 167 4 0 11 -6 17 -12z m4980 -251 c74 -23 129 -54 173 -99 120 -124 125
-302 14 -426 -63 -70 -140 -106 -227 -105 -38 0 -78 5 -91 11 -12 5 -44 20
-70 32 -107 49 -182 164 -182 280 0 70 14 112 56 175 85 125 197 170 327 132z
m-4485 -448 l67 -72 -130 -254 c-161 -313 -164 -318 -178 -318 -6 0 -30 16
-53 35 -23 19 -50 40 -58 47 -14 11 -12 19 17 74 l33 63 -38 39 c-21 22 -58
60 -82 85 l-44 46 -64 -23 -64 -23 -25 23 c-33 31 -67 86 -62 100 4 11 579
247 603 249 5 0 40 -32 78 -71z m4022 -114 c55 -53 153 -149 219 -213 l118
-116 -58 -53 c-33 -29 -61 -53 -64 -53 -7 0 -167 149 -333 310 l-129 125 58
57 c44 43 61 55 73 48 9 -5 61 -52 116 -105z m-314 -107 c10 -13 33 -44 50
-71 l31 -47 -23 -20 c-13 -11 -43 -35 -66 -52 -24 -17 -43 -38 -43 -46 0 -9
26 -52 59 -96 78 -108 191 -277 191 -287 0 -15 -132 -102 -138 -92 -17 26
-234 321 -254 346 l-23 28 -80 -51 c-62 -39 -82 -47 -91 -38 -18 19 -84 119
-84 127 0 3 40 32 88 63 48 31 148 102 222 157 74 56 137 101 138 101 2 0 12
-10 23 -22z m-3341 -107 c196 -139 209 -152 229 -240 8 -35 5 -48 -15 -89 -34
-67 -75 -92 -156 -95 l-65 -2 1 -162 c0 -89 -2 -164 -6 -168 -9 -9 -103 43
-139 76 -25 23 -27 30 -22 80 12 128 8 215 -10 242 -10 15 -21 27 -26 27 -4 0
-35 -37 -67 -82 -92 -128 -87 -124 -137 -89 -56 39 -87 66 -87 78 0 5 31 54
69 109 38 54 85 121 103 147 107 156 193 265 203 258 5 -5 62 -45 125 -90z
m1306 -58 c-4 -38 -9 -84 -11 -103 -2 -19 -7 -64 -10 -100 -3 -36 -7 -74 -10
-85 -2 -11 -4 -28 -4 -38 -1 -16 -7 -18 -48 -13 -27 4 -59 8 -73 11 -14 3 -36
6 -50 9 -91 15 -190 41 -190 50 0 6 35 38 77 71 42 33 131 106 197 163 67 56
123 102 124 102 2 0 1 -30 -2 -67z m-676 -278 c58 -24 124 -49 148 -56 46 -13
46 -13 16 -86 -8 -18 -20 -33 -28 -33 -20 0 -113 34 -191 69 -38 18 -79 30
-90 29 -20 -3 -54 -58 -55 -89 0 -10 17 -23 48 -34 54 -21 170 -71 192 -84 34
-20 -4 -110 -39 -92 -22 12 -233 91 -242 91 -7 0 -39 -73 -45 -105 -4 -22 -6
-21 189 -96 122 -46 119 -41 77 -136 -18 -41 -18 -41 -57 -33 -70 16 -300 104
-404 155 l-37 18 48 116 c26 64 56 134 66 156 10 22 18 42 19 45 1 3 13 31 28
64 15 32 27 60 27 61 0 2 16 37 35 79 l36 75 77 -35 c42 -20 124 -55 182 -79z
m2131 21 c62 -25 119 -62 119 -77 0 -12 -104 -79 -123 -79 -8 0 -28 7 -43 15
-52 27 -115 14 -157 -33 -40 -43 -12 -198 46 -260 81 -87 200 -49 222 70 5 24
14 40 26 43 32 10 138 3 143 -10 6 -17 -11 -90 -35 -144 -54 -125 -267 -188
-404 -121 -87 42 -172 145 -191 231 -8 36 -7 131 1 170 14 62 62 119 140 165
98 57 170 66 256 30z m-1766 -131 c60 -10 175 -51 230 -82 27 -15 70 -48 96
-73 40 -38 49 -54 59 -105 16 -76 8 -190 -18 -246 -43 -96 -132 -166 -217
-171 -47 -3 -144 7 -270 29 -103 17 -105 18 -105 42 0 17 73 368 109 521 10
44 16 80 12 80 -3 0 1 5 9 10 8 6 24 8 35 6 11 -3 38 -8 60 -11z m1125 -81
c17 -23 30 -45 30 -49 0 -3 31 -61 69 -128 98 -175 181 -333 181 -345 0 -11
-145 -46 -159 -38 -4 3 -20 31 -35 62 l-26 56 -48 -6 c-58 -8 -96 -15 -144
-27 -36 -9 -38 -12 -49 -70 -6 -32 -15 -61 -19 -64 -3 -2 -44 -7 -89 -11 -78
-6 -83 -5 -78 12 3 11 11 46 17 79 7 33 34 157 62 275 27 118 52 226 54 240 7
35 10 37 94 49 41 7 76 14 78 16 10 9 35 -11 62 -51z"/>
<path d="M3948 4593 c-14 -2 -32 -10 -38 -18 -14 -17 -14 -245 0 -259 6 -6 29
-11 53 -12 116 -7 810 -17 1172 -18 l410 -1 14 30 c10 20 15 65 15 137 1 90
-2 110 -17 125 -17 17 -64 18 -800 19 -430 1 -794 -1 -809 -3z m1495 -67 c32
-24 65 -54 74 -66 14 -20 13 -23 -8 -47 -41 -43 -94 -81 -124 -89 -28 -7 -28
-7 -23 34 l6 40 -68 -2 -68 -3 -4 44 c-2 25 -1 46 2 48 3 2 32 5 65 6 67 4 76
11 68 51 -8 40 11 36 80 -16z"/>
<path d="M5831 1945 c-17 -20 -32 -42 -32 -50 -3 -34 -3 -41 5 -73 14 -61 156
-162 227 -162 28 0 44 8 72 35 42 41 52 70 42 122 -14 74 -143 163 -236 163
-41 0 -51 -4 -78 -35z"/>
<path d="M1323 1549 c-57 -28 -103 -54 -103 -58 0 -4 12 -21 26 -37 14 -16 32
-39 41 -51 8 -13 19 -23 23 -23 5 0 28 35 53 78 62 107 79 142 70 142 -5 -1
-54 -23 -110 -51z"/>
<path d="M1818 1208 c-46 -64 -48 -74 -24 -96 26 -24 80 -52 112 -58 28 -5 64
30 64 62 0 25 -58 87 -102 110 -25 13 -28 12 -50 -18z"/>
<path d="M2960 730 c-10 -19 -20 -66 -36 -170 -2 -19 -10 -59 -16 -88 -14 -65
-6 -75 59 -76 108 -1 168 66 168 186 0 77 -19 110 -76 139 -59 29 -87 32 -99
9z"/>
<path d="M3931 673 c-14 -52 -31 -141 -31 -163 0 -12 7 -16 28 -14 15 1 44 2
65 3 23 1 37 6 37 14 -1 6 -21 54 -45 106 l-43 94 -11 -40z"/>
</g>
</svg>
